static_grf.mot
version=1
nRows=25
nColumns 19
inDegrees=yes
endheader
time	1_ground_force_vx	1_ground_force_vy	1_ground_force_vz	1_ground_force_px	1_ground_force_py	1_ground_force_pz	1_ground_torque_x	1_ground_torque_y	1_ground_torque_z	2_ground_force_vx	2_ground_force_vy	2_ground_force_vz	2_ground_force_px	2_ground_force_py	2_ground_force_pz	2_ground_torque_x	2_ground_torque_y	2_ground_torque_z
            1.501500	           -2.259659	          403.207134	          -29.402587	           -0.289967	            0.006085	           -0.375509	           -0.015920	            2.840647	           -0.207145	           -5.948097	          442.443629	           15.330700	           -0.298129	            0.005470	           -0.715230	           -0.018902	            1.406008	            0.048718
            1.502000	           -1.984763	          402.847049	          -29.496527	           -0.289928	            0.006083	           -0.375110	           -0.014273	            2.897064	           -0.212123	           -5.802875	          441.154984	           15.372969	           -0.297976	            0.005469	           -0.714797	           -0.017789	            1.352403	            0.047127
            1.502500	           -1.801116	          403.207026	          -29.357869	           -0.289908	            0.006083	           -0.375031	           -0.012920	            2.892351	           -0.210595	           -6.179729	          441.706555	           15.234316	           -0.298109	            0.005469	           -0.714822	           -0.019514	            1.394805	            0.048106
            1.503000	           -2.168021	          402.846817	          -29.450216	           -0.289868	            0.006084	           -0.375341	           -0.015247	            2.833070	           -0.207112	           -5.574648	          442.813492	           15.284927	           -0.298024	            0.005470	           -0.715155	           -0.016489	            1.309756	            0.045210
            1.503500	           -2.213849	          403.387439	          -29.401927	           -0.289889	            0.006083	           -0.375129	           -0.015611	            2.844555	           -0.207333	           -6.041879	          442.443960	           15.143028	           -0.298041	            0.005470	           -0.715146	           -0.019025	            1.393221	            0.047684
            1.504000	           -1.939100	          403.207786	          -29.540951	           -0.290021	            0.006083	           -0.375052	           -0.013719	            2.852695	           -0.209002	           -5.992330	          441.707232	           15.234236	           -0.297936	            0.005470	           -0.714905	           -0.018391	            1.355645	            0.046755
            1.504500	           -1.984407	          403.387090	          -29.310785	           -0.290185	            0.006083	           -0.375115	           -0.014194	            2.885389	           -0.209657	           -6.041900	          442.444128	           15.096100	           -0.297999	            0.005470	           -0.714976	           -0.019086	            1.397640	            0.047687
            1.505000	           -1.893125	          402.486732	          -29.544157	           -0.290154	            0.006083	           -0.375174	           -0.013636	            2.899156	           -0.212810	           -5.433352	          442.629189	           15.471923	           -0.298095	            0.005470	           -0.715146	           -0.015942	            1.298717	            0.045396
            1.505500	           -2.122391	          403.387850	          -29.493867	           -0.290020	            0.006083	           -0.375043	           -0.014880	            2.828068	           -0.206775	           -6.131571	          441.338610	           15.186054	           -0.298034	            0.005469	           -0.714977	           -0.019086	            1.373740	            0.047269
            1.506000	           -2.076335	          402.846835	          -29.450444	           -0.289854	            0.006083	           -0.375200	           -0.014706	            2.853210	           -0.208586	           -6.038454	          441.522420	           15.374383	           -0.297878	            0.005469	           -0.714813	           -0.018377	            1.343715	            0.046790
            1.506500	           -2.168105	          403.928215	          -29.399722	           -0.289804	            0.006082	           -0.374921	           -0.015385	            2.866363	           -0.208627	           -5.901850	          442.627498	           15.472122	           -0.298013	            0.005470	           -0.715236	           -0.017941	            1.345519	            0.047033
            1.507000	           -2.030151	          402.846254	          -29.312990	           -0.289991	            0.006084	           -0.375231	           -0.014389	            2.855149	           -0.207754	           -5.713080	          442.259497	           15.564584	           -0.297893	            0.005471	           -0.715219	           -0.016549	            1.281098	            0.045086
            1.507500	           -2.305697	          403.027283	          -29.494958	           -0.289957	            0.006083	           -0.375200	           -0.015987	            2.794453	           -0.204508	           -5.524393	          441.892227	           15.469334	           -0.298079	            0.005469	           -0.714950	           -0.016624	            1.329711	            0.046549
            1.508000	           -2.076077	          403.927642	          -29.262382	           -0.289985	            0.006082	           -0.374951	           -0.014682	            2.856651	           -0.206949	           -5.943486	          441.154979	           15.232245	           -0.298319	            0.005468	           -0.714756	           -0.018637	            1.383300	            0.047763
            1.508500	           -2.030298	          403.026747	          -29.358073	           -0.289913	            0.006083	           -0.375089	           -0.014525	            2.883329	           -0.210033	           -5.901268	          442.443966	           15.283752	           -0.297785	            0.005471	           -0.715102	           -0.018286	            1.371008	            0.047360
            1.509000	           -2.213391	          402.125156	          -29.315627	           -0.290068	            0.006083	           -0.375169	           -0.015608	            2.835599	           -0.206720	           -5.665669	          442.076363	           15.329267	           -0.298008	            0.005471	           -0.715256	           -0.017007	            1.327037	            0.046016
            1.509500	           -1.938708	          402.306095	          -29.453104	           -0.289919	            0.006084	           -0.375359	           -0.013659	            2.834495	           -0.207515	           -6.134812	          442.258644	           15.377051	           -0.297983	            0.005470	           -0.715139	           -0.018884	            1.361368	            0.047334
            1.510000	           -2.260016	          402.667154	          -29.588329	           -0.289898	            0.006085	           -0.375504	           -0.015990	            2.848874	           -0.209338	           -5.993721	          442.076015	           15.094766	           -0.298094	            0.005469	           -0.714876	           -0.018478	            1.362883	            0.046536
            1.510500	           -2.122229	          403.747988	          -29.400609	           -0.289920	            0.006083	           -0.374973	           -0.015017	            2.856855	           -0.208034	           -6.087962	          442.258813	           15.377031	           -0.297858	            0.005470	           -0.714927	           -0.019351	            1.405747	            0.048877
            1.511000	           -2.167761	          402.666189	          -29.359277	           -0.290028	            0.006084	           -0.375339	           -0.015450	            2.869839	           -0.209246	           -5.991562	          441.522254	           15.468219	           -0.298137	            0.005469	           -0.714898	           -0.018663	            1.375273	            0.048181
            1.511500	           -2.122520	          402.847416	          -29.587898	           -0.290091	            0.006085	           -0.375494	           -0.015032	            2.853036	           -0.209547	           -5.711313	          441.708916	           15.046404	           -0.298020	            0.005470	           -0.714988	           -0.017604	            1.361479	            0.046378
            1.512000	           -1.892978	          402.306300	          -29.499074	           -0.290006	            0.006085	           -0.375456	           -0.013344	            2.835933	           -0.207945	           -5.992268	          441.706730	           15.375020	           -0.297981	            0.005469	           -0.714863	           -0.018644	            1.374317	            0.047838
            1.512500	           -1.893176	          403.387894	          -29.494436	           -0.290039	            0.006082	           -0.374946	           -0.013362	            2.847121	           -0.208172	           -5.993597	          442.075011	           15.376334	           -0.297967	            0.005470	           -0.715046	           -0.018368	            1.354794	            0.047123
            1.513000	           -1.892963	          402.846870	          -29.450899	           -0.290061	            0.006083	           -0.375150	           -0.013585	            2.891055	           -0.211356	           -5.899274	          441.891543	           15.281781	           -0.297824	            0.005470	           -0.714954	           -0.018178	            1.361666	            0.047090
            1.513500	           -2.167925	          403.567487	          -29.355412	           -0.289857	            0.006082	           -0.374884	           -0.015343	            2.856241	           -0.207762	           -5.523207	          441.525117	           15.139523	           -0.297920	            0.005469	           -0.714767	           -0.017058	            1.363654	            0.046759
